<mxfile host="app.diagrams.net" agent="Mozilla/5.0 (X11; Linux x86_64) AppleWebKit/537.36 (KHTML, like Gecko) Chrome/132.0.0.0 Safari/537.36" version="26.2.12">
  <diagram name="第 1 页" id="ymwS_IY8MIXRyYueqAV2">
    <mxGraphModel dx="753" dy="496" grid="1" gridSize="10" guides="1" tooltips="1" connect="1" arrows="1" fold="1" page="1" pageScale="1" pageWidth="1169" pageHeight="827" math="0" shadow="0">
      <root>
        <mxCell id="0" />
        <mxCell id="1" parent="0" />
        <mxCell id="F3Z2k89PkYjlrjDhpoIZ-32" value="Optimization&lt;div&gt;Module&lt;/div&gt;" style="text;html=1;align=center;verticalAlign=middle;whiteSpace=wrap;rounded=0;fontFamily=Times New Roman;fontSize=14;" parent="1" vertex="1">
          <mxGeometry x="210" y="639" width="40" height="30" as="geometry" />
        </mxCell>
        <mxCell id="F3Z2k89PkYjlrjDhpoIZ-33" value="Solver&lt;div&gt;Module&lt;/div&gt;" style="text;html=1;align=center;verticalAlign=middle;whiteSpace=wrap;rounded=0;fontFamily=Times New Roman;fontSize=14;" parent="1" vertex="1">
          <mxGeometry x="205" y="357" width="40" height="30" as="geometry" />
        </mxCell>
        <mxCell id="F3Z2k89PkYjlrjDhpoIZ-35" value="Material&lt;div&gt;Module&lt;/div&gt;" style="text;html=1;align=center;verticalAlign=middle;whiteSpace=wrap;rounded=0;fontFamily=Times New Roman;fontSize=14;" parent="1" vertex="1">
          <mxGeometry x="205" y="235" width="40" height="30" as="geometry" />
        </mxCell>
        <mxCell id="F3Z2k89PkYjlrjDhpoIZ-38" value="&lt;font style=&quot;font-size: 18px;&quot;&gt;FEALPy Sumulation Applications&lt;/font&gt;" style="rounded=0;whiteSpace=wrap;html=1;fontFamily=Times New Roman;fontSize=14;fontStyle=1;dashed=1;strokeColor=none;" parent="1" vertex="1">
          <mxGeometry x="120" y="141" width="600" height="18" as="geometry" />
        </mxCell>
        <mxCell id="F3Z2k89PkYjlrjDhpoIZ-39" value="" style="shape=flexArrow;endArrow=classic;html=1;rounded=0;entryX=0.5;entryY=1;entryDx=0;entryDy=0;endWidth=11.904761904761905;endSize=5.585714285714285;width=8.095238095238095;fontFamily=Times New Roman;startSize=6;fontSize=11;" parent="1" edge="1">
          <mxGeometry width="50" height="50" relative="1" as="geometry">
            <mxPoint x="399" y="198" as="sourcePoint" />
            <mxPoint x="399" y="160" as="targetPoint" />
          </mxGeometry>
        </mxCell>
        <mxCell id="SHF09hgEC6lpMV5m1Q11-1" value="" style="shape=curlyBracket;whiteSpace=wrap;html=1;rounded=1;labelPosition=left;verticalLabelPosition=middle;align=right;verticalAlign=middle;" parent="1" vertex="1">
          <mxGeometry x="178" y="248" width="20" height="410" as="geometry" />
        </mxCell>
        <mxCell id="SHF09hgEC6lpMV5m1Q11-2" value="&lt;font style=&quot;font-size: 16px;&quot;&gt;SOPTX&lt;/font&gt;" style="text;html=1;align=center;verticalAlign=middle;resizable=0;points=[];autosize=1;strokeColor=none;fillColor=none;fontFamily=Times New Roman;fontStyle=1;fontSize=14;" parent="1" vertex="1">
          <mxGeometry x="114" y="439" width="70" height="30" as="geometry" />
        </mxCell>
        <mxCell id="QV9En6UjGn9VhWlDcuHC-3" value="Filter&lt;div&gt;Module&lt;/div&gt;" style="text;html=1;align=center;verticalAlign=middle;whiteSpace=wrap;rounded=0;fontFamily=Times New Roman;fontSize=14;" parent="1" vertex="1">
          <mxGeometry x="204" y="476" width="40" height="30" as="geometry" />
        </mxCell>
        <mxCell id="QV9En6UjGn9VhWlDcuHC-32" value="" style="rounded=0;whiteSpace=wrap;html=1;fontFamily=Times New Roman;dashed=1;" parent="1" vertex="1">
          <mxGeometry x="325" y="440" width="211" height="50" as="geometry" />
        </mxCell>
        <mxCell id="QV9En6UjGn9VhWlDcuHC-33" value="&lt;span style=&quot;font-size: 10px;&quot;&gt;Sensitivity&lt;/span&gt;&lt;div&gt;&lt;span style=&quot;font-size: 10px;&quot;&gt;Filter&lt;/span&gt;&lt;/div&gt;" style="rounded=1;whiteSpace=wrap;html=1;fillColor=#fff2cc;strokeColor=#d6b656;align=center;verticalAlign=middle;fontFamily=Times New Roman;fontSize=12;fontColor=default;container=0;" parent="1" vertex="1">
          <mxGeometry x="334" y="445" width="45" height="40" as="geometry">
            <mxRectangle x="334" y="445" width="80" height="40" as="alternateBounds" />
          </mxGeometry>
        </mxCell>
        <mxCell id="QV9En6UjGn9VhWlDcuHC-37" value="&lt;span style=&quot;font-size: 10px;&quot;&gt;Density&lt;/span&gt;&lt;div&gt;&lt;span style=&quot;font-size: 10px;&quot;&gt;Filter&lt;/span&gt;&lt;/div&gt;" style="rounded=1;whiteSpace=wrap;html=1;fillColor=#fff2cc;strokeColor=#d6b656;align=center;verticalAlign=middle;fontFamily=Times New Roman;fontSize=12;fontColor=default;" parent="1" vertex="1">
          <mxGeometry x="385" y="445" width="45" height="40" as="geometry" />
        </mxCell>
        <mxCell id="QV9En6UjGn9VhWlDcuHC-38" value="&lt;span style=&quot;font-size: 10px;&quot;&gt;Heaviside Filter&lt;/span&gt;" style="rounded=1;whiteSpace=wrap;html=1;fillColor=#fff2cc;strokeColor=#d6b656;align=center;verticalAlign=middle;fontFamily=Times New Roman;fontSize=12;fontColor=default;" parent="1" vertex="1">
          <mxGeometry x="436" y="445" width="45" height="40" as="geometry" />
        </mxCell>
        <mxCell id="QV9En6UjGn9VhWlDcuHC-43" value="&lt;span style=&quot;font-size: 10px;&quot;&gt;...&lt;/span&gt;" style="rounded=1;whiteSpace=wrap;html=1;fillColor=#fff2cc;strokeColor=#d6b656;align=center;verticalAlign=middle;fontFamily=Times New Roman;fontSize=12;fontColor=default;" parent="1" vertex="1">
          <mxGeometry x="485" y="445" width="45" height="40" as="geometry" />
        </mxCell>
        <mxCell id="QV9En6UjGn9VhWlDcuHC-46" value="" style="shape=curlyBracket;whiteSpace=wrap;html=1;rounded=1;labelPosition=left;verticalLabelPosition=middle;align=right;verticalAlign=middle;" parent="1" vertex="1">
          <mxGeometry x="267" y="613" width="20" height="81" as="geometry" />
        </mxCell>
        <mxCell id="QV9En6UjGn9VhWlDcuHC-47" value="&lt;span style=&quot;font-size: 12px;&quot;&gt;Optimization&lt;/span&gt;&lt;div&gt;&lt;span style=&quot;font-size: 12px;&quot;&gt;Problems&lt;/span&gt;&lt;/div&gt;" style="text;html=1;align=center;verticalAlign=middle;whiteSpace=wrap;rounded=0;fontFamily=Times New Roman;fontSize=14;" parent="1" vertex="1">
          <mxGeometry x="297" y="597" width="40" height="30" as="geometry" />
        </mxCell>
        <mxCell id="QV9En6UjGn9VhWlDcuHC-48" value="&lt;span style=&quot;font-size: 12px;&quot;&gt;Optimization&lt;/span&gt;&lt;div&gt;&lt;span style=&quot;font-size: 12px;&quot;&gt;Algorithms&lt;/span&gt;&lt;/div&gt;" style="text;html=1;align=center;verticalAlign=middle;whiteSpace=wrap;rounded=0;fontFamily=Times New Roman;fontSize=14;" parent="1" vertex="1">
          <mxGeometry x="296" y="678" width="40" height="30" as="geometry" />
        </mxCell>
        <mxCell id="QV9En6UjGn9VhWlDcuHC-56" value="" style="shape=curlyBracket;whiteSpace=wrap;html=1;rounded=1;labelPosition=left;verticalLabelPosition=middle;align=right;verticalAlign=middle;" parent="1" vertex="1">
          <mxGeometry x="348" y="584.5" width="20" height="55" as="geometry" />
        </mxCell>
        <mxCell id="QV9En6UjGn9VhWlDcuHC-57" value="&lt;span style=&quot;font-size: 12px;&quot;&gt;Objective&lt;/span&gt;&lt;div&gt;&lt;span style=&quot;font-size: 12px;&quot;&gt;Functions&lt;/span&gt;&lt;/div&gt;" style="text;html=1;align=center;verticalAlign=middle;whiteSpace=wrap;rounded=0;fontFamily=Times New Roman;fontSize=14;" parent="1" vertex="1">
          <mxGeometry x="370" y="569" width="40" height="30" as="geometry" />
        </mxCell>
        <mxCell id="QV9En6UjGn9VhWlDcuHC-58" value="&lt;span style=&quot;font-size: 12px;&quot;&gt;Constraint&lt;br&gt;Functions&lt;/span&gt;" style="text;html=1;align=center;verticalAlign=middle;whiteSpace=wrap;rounded=0;fontFamily=Times New Roman;fontSize=14;" parent="1" vertex="1">
          <mxGeometry x="371" y="624.5" width="40" height="30" as="geometry" />
        </mxCell>
        <mxCell id="QV9En6UjGn9VhWlDcuHC-59" value="" style="rounded=0;whiteSpace=wrap;html=1;fontFamily=Times New Roman;dashed=1;" parent="1" vertex="1">
          <mxGeometry x="418" y="560" width="210" height="50" as="geometry" />
        </mxCell>
        <mxCell id="QV9En6UjGn9VhWlDcuHC-60" value="&lt;span style=&quot;font-size: 10px;&quot;&gt;Compliance&lt;/span&gt;&lt;div&gt;&lt;span style=&quot;font-size: 10px;&quot;&gt;Minimization&lt;/span&gt;&lt;/div&gt;" style="rounded=1;whiteSpace=wrap;html=1;fillColor=#dae8fc;strokeColor=#6c8ebf;align=center;verticalAlign=middle;fontFamily=Times New Roman;fontSize=12;fontColor=default;" parent="1" vertex="1">
          <mxGeometry x="428" y="565" width="53" height="40" as="geometry" />
        </mxCell>
        <mxCell id="QV9En6UjGn9VhWlDcuHC-61" value="&lt;span style=&quot;font-size: 10px;&quot;&gt;Heat&lt;/span&gt;&lt;div&gt;&lt;span style=&quot;font-size: 10px;&quot;&gt;Conduction&lt;/span&gt;&lt;/div&gt;" style="rounded=1;whiteSpace=wrap;html=1;fillColor=#dae8fc;strokeColor=#6c8ebf;align=center;verticalAlign=middle;fontFamily=Times New Roman;fontSize=12;fontColor=default;dashed=1;" parent="1" vertex="1">
          <mxGeometry x="490" y="565" width="53" height="40" as="geometry" />
        </mxCell>
        <mxCell id="QV9En6UjGn9VhWlDcuHC-63" value="" style="rounded=0;whiteSpace=wrap;html=1;fontFamily=Times New Roman;dashed=1;" parent="1" vertex="1">
          <mxGeometry x="418" y="610" width="210" height="50" as="geometry" />
        </mxCell>
        <mxCell id="QV9En6UjGn9VhWlDcuHC-64" value="&lt;span style=&quot;font-size: 10px;&quot;&gt;Volume&lt;/span&gt;&lt;div&gt;&lt;span style=&quot;font-size: 10px;&quot;&gt;Constraint&lt;/span&gt;&lt;/div&gt;" style="rounded=1;whiteSpace=wrap;html=1;fillColor=#dae8fc;strokeColor=#6c8ebf;align=center;verticalAlign=middle;fontFamily=Times New Roman;fontSize=12;fontColor=default;" parent="1" vertex="1">
          <mxGeometry x="428" y="615" width="53" height="40" as="geometry" />
        </mxCell>
        <mxCell id="QV9En6UjGn9VhWlDcuHC-65" value="&lt;span style=&quot;font-size: 10px;&quot;&gt;Stress&lt;/span&gt;&lt;div&gt;&lt;span style=&quot;font-size: 10px;&quot;&gt;Constraint&lt;/span&gt;&lt;/div&gt;" style="rounded=1;whiteSpace=wrap;html=1;fillColor=#dae8fc;strokeColor=#6c8ebf;align=center;dashed=1;verticalAlign=middle;fontFamily=Times New Roman;fontSize=12;fontColor=default;" parent="1" vertex="1">
          <mxGeometry x="490" y="614.5" width="53" height="40" as="geometry" />
        </mxCell>
        <mxCell id="QV9En6UjGn9VhWlDcuHC-66" value="&lt;span style=&quot;font-size: 10px;&quot;&gt;...&lt;/span&gt;" style="rounded=1;whiteSpace=wrap;html=1;fillColor=#dae8fc;strokeColor=#6c8ebf;align=center;dashed=1;verticalAlign=middle;fontFamily=Times New Roman;fontSize=12;fontColor=default;" parent="1" vertex="1">
          <mxGeometry x="552" y="615" width="53" height="40" as="geometry" />
        </mxCell>
        <mxCell id="QV9En6UjGn9VhWlDcuHC-67" value="&lt;span style=&quot;font-size: 10px;&quot;&gt;...&lt;/span&gt;" style="rounded=1;whiteSpace=wrap;html=1;fillColor=#dae8fc;strokeColor=#6c8ebf;align=center;verticalAlign=middle;fontFamily=Times New Roman;fontSize=12;fontColor=default;dashed=1;" parent="1" vertex="1">
          <mxGeometry x="552" y="565" width="53" height="40" as="geometry" />
        </mxCell>
        <mxCell id="cAgsl87A5W_VfvOpg8Ob-4" value="" style="rounded=0;whiteSpace=wrap;html=1;fontFamily=Times New Roman;dashed=1;" parent="1" vertex="1">
          <mxGeometry x="350" y="669" width="210" height="50" as="geometry" />
        </mxCell>
        <mxCell id="cAgsl87A5W_VfvOpg8Ob-5" value="&lt;span style=&quot;font-size: 10px;&quot;&gt;OC&lt;/span&gt;" style="rounded=1;whiteSpace=wrap;html=1;fillColor=#dae8fc;strokeColor=#6c8ebf;align=center;verticalAlign=middle;fontFamily=Times New Roman;fontSize=12;fontColor=default;" parent="1" vertex="1">
          <mxGeometry x="361" y="674" width="40" height="40" as="geometry" />
        </mxCell>
        <mxCell id="cAgsl87A5W_VfvOpg8Ob-6" value="&lt;span style=&quot;font-size: 10px;&quot;&gt;MMA&lt;/span&gt;" style="rounded=1;whiteSpace=wrap;html=1;fillColor=#dae8fc;strokeColor=#6c8ebf;align=center;verticalAlign=middle;fontFamily=Times New Roman;fontSize=12;fontColor=default;" parent="1" vertex="1">
          <mxGeometry x="411" y="674" width="40" height="40" as="geometry" />
        </mxCell>
        <mxCell id="cAgsl87A5W_VfvOpg8Ob-11" value="&lt;span style=&quot;font-size: 10px;&quot;&gt;...&lt;/span&gt;" style="rounded=1;whiteSpace=wrap;html=1;fillColor=#dae8fc;strokeColor=#6c8ebf;align=center;verticalAlign=middle;fontFamily=Times New Roman;fontSize=12;fontColor=default;dashed=1;" parent="1" vertex="1">
          <mxGeometry x="463" y="674" width="40" height="40" as="geometry" />
        </mxCell>
        <mxCell id="WzBGASRhdgCEX8o0v8tj-3" value="&lt;span style=&quot;font-size: 12px;&quot;&gt;Basic&lt;/span&gt;&lt;div&gt;&lt;span style=&quot;font-size: 12px;&quot;&gt;Filters&lt;/span&gt;&lt;/div&gt;" style="text;html=1;align=center;verticalAlign=middle;whiteSpace=wrap;rounded=0;fontFamily=Times New Roman;fontSize=14;" parent="1" vertex="1">
          <mxGeometry x="269" y="450" width="40" height="30" as="geometry" />
        </mxCell>
        <mxCell id="WzBGASRhdgCEX8o0v8tj-5" value="" style="group" parent="1" vertex="1" connectable="0">
          <mxGeometry x="266" y="199.5" width="306" height="99" as="geometry" />
        </mxCell>
        <mxCell id="F3Z2k89PkYjlrjDhpoIZ-31" value="" style="rounded=0;whiteSpace=wrap;html=1;fontFamily=Times New Roman;dashed=1;" parent="WzBGASRhdgCEX8o0v8tj-5" vertex="1">
          <mxGeometry x="61" width="252" height="50" as="geometry" />
        </mxCell>
        <mxCell id="F3Z2k89PkYjlrjDhpoIZ-23" value="&lt;span style=&quot;font-size: 10px;&quot;&gt;LinearElastic Materials&lt;/span&gt;" style="rounded=1;whiteSpace=wrap;html=1;fillColor=#d5e8d4;strokeColor=#82b366;align=center;" parent="WzBGASRhdgCEX8o0v8tj-5" vertex="1">
          <mxGeometry x="67" y="5" width="58" height="40" as="geometry" />
        </mxCell>
        <mxCell id="QV9En6UjGn9VhWlDcuHC-4" value="" style="shape=curlyBracket;whiteSpace=wrap;html=1;rounded=1;labelPosition=left;verticalLabelPosition=middle;align=right;verticalAlign=middle;" parent="WzBGASRhdgCEX8o0v8tj-5" vertex="1">
          <mxGeometry x="-17" y="19.5" width="20" height="60" as="geometry" />
        </mxCell>
        <mxCell id="QV9En6UjGn9VhWlDcuHC-5" value="&lt;span style=&quot;font-size: 12px;&quot;&gt;Material&lt;/span&gt;&lt;div&gt;&lt;span style=&quot;font-size: 12px;&quot;&gt;Properties&lt;/span&gt;&lt;/div&gt;" style="text;html=1;align=center;verticalAlign=middle;whiteSpace=wrap;rounded=0;fontFamily=Times New Roman;fontSize=14;" parent="WzBGASRhdgCEX8o0v8tj-5" vertex="1">
          <mxGeometry x="8" y="5" width="40" height="30" as="geometry" />
        </mxCell>
        <mxCell id="QV9En6UjGn9VhWlDcuHC-6" value="&lt;span style=&quot;font-size: 12px;&quot;&gt;Interpolation&lt;/span&gt;&lt;div&gt;&lt;span style=&quot;font-size: 12px;&quot;&gt;Models&lt;/span&gt;&lt;/div&gt;" style="text;html=1;align=center;verticalAlign=middle;whiteSpace=wrap;rounded=0;fontFamily=Times New Roman;fontSize=14;" parent="WzBGASRhdgCEX8o0v8tj-5" vertex="1">
          <mxGeometry x="9" y="61" width="40" height="30" as="geometry" />
        </mxCell>
        <mxCell id="QV9En6UjGn9VhWlDcuHC-15" value="" style="rounded=0;whiteSpace=wrap;html=1;fontFamily=Times New Roman;dashed=1;fillColor=default;" parent="WzBGASRhdgCEX8o0v8tj-5" vertex="1">
          <mxGeometry x="61" y="49" width="252" height="50" as="geometry" />
        </mxCell>
        <mxCell id="QV9En6UjGn9VhWlDcuHC-16" value="&lt;span style=&quot;font-size: 10px;&quot;&gt;SIMP&lt;/span&gt;" style="rounded=1;whiteSpace=wrap;html=1;fillColor=#d5e8d4;strokeColor=#82b366;align=center;" parent="WzBGASRhdgCEX8o0v8tj-5" vertex="1">
          <mxGeometry x="67" y="54" width="40" height="40" as="geometry" />
        </mxCell>
        <mxCell id="QV9En6UjGn9VhWlDcuHC-17" value="&lt;span style=&quot;font-size: 10px;&quot;&gt;RAMP&lt;/span&gt;" style="rounded=1;whiteSpace=wrap;html=1;fillColor=#d5e8d4;strokeColor=#82b366;align=center;dashed=1;" parent="WzBGASRhdgCEX8o0v8tj-5" vertex="1">
          <mxGeometry x="114" y="54" width="40" height="40" as="geometry" />
        </mxCell>
        <mxCell id="QV9En6UjGn9VhWlDcuHC-19" value="&lt;span style=&quot;font-size: 10px;&quot;&gt;...&lt;/span&gt;" style="rounded=1;whiteSpace=wrap;html=1;fillColor=#d5e8d4;strokeColor=#82b366;align=center;dashed=1;" parent="WzBGASRhdgCEX8o0v8tj-5" vertex="1">
          <mxGeometry x="162" y="54" width="40" height="40" as="geometry" />
        </mxCell>
        <mxCell id="QV9En6UjGn9VhWlDcuHC-11" value="&lt;span style=&quot;font-size: 10px;&quot;&gt;Hyper&lt;/span&gt;&lt;span style=&quot;font-size: 10px; background-color: transparent; color: light-dark(rgb(0, 0, 0), rgb(255, 255, 255));&quot;&gt;elastic&lt;/span&gt;&lt;div&gt;&lt;span style=&quot;font-size: 10px; background-color: transparent; color: light-dark(rgb(0, 0, 0), rgb(255, 255, 255));&quot;&gt;Materials&lt;/span&gt;&lt;/div&gt;" style="rounded=1;whiteSpace=wrap;html=1;fillColor=#d5e8d4;strokeColor=#82b366;align=center;dashed=1;" parent="WzBGASRhdgCEX8o0v8tj-5" vertex="1">
          <mxGeometry x="133" y="5" width="58" height="40" as="geometry" />
        </mxCell>
        <mxCell id="QV9En6UjGn9VhWlDcuHC-12" value="&lt;span style=&quot;font-size: 10px;&quot;&gt;Elasto&lt;/span&gt;&lt;span style=&quot;font-size: 10px; background-color: transparent; color: light-dark(rgb(0, 0, 0), rgb(255, 255, 255));&quot;&gt;plasitc&lt;/span&gt;&lt;div&gt;&lt;span style=&quot;font-size: 10px; background-color: transparent; color: light-dark(rgb(0, 0, 0), rgb(255, 255, 255));&quot;&gt;Materials&lt;/span&gt;&lt;/div&gt;" style="rounded=1;whiteSpace=wrap;html=1;fillColor=#d5e8d4;strokeColor=#82b366;align=center;dashed=1;" parent="WzBGASRhdgCEX8o0v8tj-5" vertex="1">
          <mxGeometry x="199" y="5" width="58" height="40" as="geometry" />
        </mxCell>
        <mxCell id="QV9En6UjGn9VhWlDcuHC-13" value="&lt;span style=&quot;font-size: 10px;&quot;&gt;...&lt;/span&gt;" style="rounded=1;whiteSpace=wrap;html=1;fillColor=#d5e8d4;strokeColor=#82b366;align=center;dashed=1;" parent="WzBGASRhdgCEX8o0v8tj-5" vertex="1">
          <mxGeometry x="265" y="5" width="40" height="40" as="geometry" />
        </mxCell>
        <mxCell id="WzBGASRhdgCEX8o0v8tj-6" value="" style="group" parent="1" vertex="1" connectable="0">
          <mxGeometry x="247" y="319" width="272" height="100" as="geometry" />
        </mxCell>
        <mxCell id="QV9En6UjGn9VhWlDcuHC-20" value="" style="rounded=0;whiteSpace=wrap;html=1;fontFamily=Times New Roman;dashed=1;" parent="WzBGASRhdgCEX8o0v8tj-6" vertex="1">
          <mxGeometry x="79" width="210" height="50" as="geometry" />
        </mxCell>
        <mxCell id="QV9En6UjGn9VhWlDcuHC-21" value="&lt;span style=&quot;font-size: 10px;&quot;&gt;Displace&lt;/span&gt;&lt;span style=&quot;font-size: 10px; background-color: transparent; color: light-dark(rgb(0, 0, 0), rgb(255, 255, 255));&quot;&gt;ment&lt;/span&gt;" style="rounded=1;whiteSpace=wrap;html=1;fillColor=#f8cecc;strokeColor=#b85450;align=center;verticalAlign=middle;fontFamily=Times New Roman;fontSize=12;fontColor=default;" parent="WzBGASRhdgCEX8o0v8tj-6" vertex="1">
          <mxGeometry x="89" y="5" width="56" height="40" as="geometry" />
        </mxCell>
        <mxCell id="QV9En6UjGn9VhWlDcuHC-22" value="" style="shape=curlyBracket;whiteSpace=wrap;html=1;rounded=1;labelPosition=left;verticalLabelPosition=middle;align=right;verticalAlign=middle;" parent="WzBGASRhdgCEX8o0v8tj-6" vertex="1">
          <mxGeometry x="1" y="25" width="20" height="55" as="geometry" />
        </mxCell>
        <mxCell id="QV9En6UjGn9VhWlDcuHC-23" value="&lt;span style=&quot;font-size: 12px;&quot;&gt;Physical&lt;/span&gt;&lt;div&gt;&lt;span style=&quot;font-size: 12px;&quot;&gt;Fileds&lt;/span&gt;&lt;/div&gt;" style="text;html=1;align=center;verticalAlign=middle;whiteSpace=wrap;rounded=0;fontFamily=Times New Roman;fontSize=14;" parent="WzBGASRhdgCEX8o0v8tj-6" vertex="1">
          <mxGeometry x="23" y="9" width="40" height="30" as="geometry" />
        </mxCell>
        <mxCell id="QV9En6UjGn9VhWlDcuHC-24" value="&lt;span style=&quot;font-size: 12px;&quot;&gt;Numerical&lt;/span&gt;&lt;div&gt;&lt;span style=&quot;font-size: 12px;&quot;&gt;Methods&lt;/span&gt;&lt;/div&gt;" style="text;html=1;align=center;verticalAlign=middle;whiteSpace=wrap;rounded=0;fontFamily=Times New Roman;fontSize=14;" parent="WzBGASRhdgCEX8o0v8tj-6" vertex="1">
          <mxGeometry x="25" y="64" width="40" height="30" as="geometry" />
        </mxCell>
        <mxCell id="QV9En6UjGn9VhWlDcuHC-25" value="&lt;span style=&quot;font-size: 10px;&quot;&gt;Stress&lt;/span&gt;" style="rounded=1;whiteSpace=wrap;html=1;fillColor=#f8cecc;strokeColor=#b85450;align=center;dashed=1;verticalAlign=middle;fontFamily=Times New Roman;fontSize=12;fontColor=default;" parent="WzBGASRhdgCEX8o0v8tj-6" vertex="1">
          <mxGeometry x="153" y="5" width="56" height="40" as="geometry" />
        </mxCell>
        <mxCell id="QV9En6UjGn9VhWlDcuHC-27" value="&lt;span style=&quot;font-size: 10px;&quot;&gt;...&lt;/span&gt;" style="rounded=1;whiteSpace=wrap;html=1;fillColor=#f8cecc;strokeColor=#b85450;align=center;dashed=1;verticalAlign=middle;fontFamily=Times New Roman;fontSize=12;fontColor=default;" parent="WzBGASRhdgCEX8o0v8tj-6" vertex="1">
          <mxGeometry x="218" y="5" width="56" height="40" as="geometry" />
        </mxCell>
        <mxCell id="QV9En6UjGn9VhWlDcuHC-28" value="" style="rounded=0;whiteSpace=wrap;html=1;fontFamily=Times New Roman;dashed=1;" parent="WzBGASRhdgCEX8o0v8tj-6" vertex="1">
          <mxGeometry x="79" y="50" width="210" height="50" as="geometry" />
        </mxCell>
        <mxCell id="QV9En6UjGn9VhWlDcuHC-29" value="&lt;span style=&quot;font-size: 10px;&quot;&gt;FEM&lt;/span&gt;" style="rounded=1;whiteSpace=wrap;html=1;fillColor=#f8cecc;strokeColor=#b85450;align=center;verticalAlign=middle;fontFamily=Times New Roman;fontSize=12;fontColor=default;" parent="WzBGASRhdgCEX8o0v8tj-6" vertex="1">
          <mxGeometry x="89" y="55" width="56" height="40" as="geometry" />
        </mxCell>
        <mxCell id="QV9En6UjGn9VhWlDcuHC-30" value="&lt;span style=&quot;font-size: 10px;&quot;&gt;VEM&lt;/span&gt;" style="rounded=1;whiteSpace=wrap;html=1;fillColor=#f8cecc;strokeColor=#b85450;align=center;dashed=1;verticalAlign=middle;fontFamily=Times New Roman;fontSize=12;fontColor=default;" parent="WzBGASRhdgCEX8o0v8tj-6" vertex="1">
          <mxGeometry x="152" y="55" width="56" height="40" as="geometry" />
        </mxCell>
        <mxCell id="QV9En6UjGn9VhWlDcuHC-31" value="&lt;span style=&quot;font-size: 10px;&quot;&gt;...&lt;/span&gt;" style="rounded=1;whiteSpace=wrap;html=1;fillColor=#f8cecc;strokeColor=#b85450;align=center;dashed=1;verticalAlign=middle;fontFamily=Times New Roman;fontSize=12;fontColor=default;" parent="WzBGASRhdgCEX8o0v8tj-6" vertex="1">
          <mxGeometry x="217" y="55" width="56" height="40" as="geometry" />
        </mxCell>
        <mxCell id="WzBGASRhdgCEX8o0v8tj-7" value="" style="rounded=0;whiteSpace=wrap;html=1;fontFamily=Times New Roman;dashed=1;" parent="1" vertex="1">
          <mxGeometry x="325" y="490" width="211" height="50" as="geometry" />
        </mxCell>
        <mxCell id="WzBGASRhdgCEX8o0v8tj-8" value="&lt;span style=&quot;font-size: 10px;&quot;&gt;Nonlinear&lt;/span&gt;&lt;div&gt;&lt;span style=&quot;font-size: 10px;&quot;&gt;Filter&lt;/span&gt;&lt;/div&gt;" style="rounded=1;whiteSpace=wrap;html=1;fillColor=#fff2cc;strokeColor=#d6b656;align=center;verticalAlign=middle;fontFamily=Times New Roman;fontSize=12;fontColor=default;" parent="1" vertex="1">
          <mxGeometry x="334" y="495" width="45" height="40" as="geometry" />
        </mxCell>
        <mxCell id="WzBGASRhdgCEX8o0v8tj-9" value="&lt;span style=&quot;font-size: 10px;&quot;&gt;PDE&lt;/span&gt;&lt;br&gt;&lt;div&gt;&lt;span style=&quot;font-size: 10px;&quot;&gt;Filter&lt;/span&gt;&lt;/div&gt;" style="rounded=1;whiteSpace=wrap;html=1;fillColor=#fff2cc;strokeColor=#d6b656;align=center;verticalAlign=middle;fontFamily=Times New Roman;fontSize=12;fontColor=default;" parent="1" vertex="1">
          <mxGeometry x="385" y="495" width="45" height="40" as="geometry" />
        </mxCell>
        <mxCell id="WzBGASRhdgCEX8o0v8tj-11" value="&lt;span style=&quot;font-size: 10px;&quot;&gt;...&lt;/span&gt;" style="rounded=1;whiteSpace=wrap;html=1;fillColor=#fff2cc;strokeColor=#d6b656;align=center;verticalAlign=middle;fontFamily=Times New Roman;fontSize=12;fontColor=default;" parent="1" vertex="1">
          <mxGeometry x="436" y="495" width="45" height="40" as="geometry" />
        </mxCell>
        <mxCell id="HAwrNAH2j693whvZ-E83-3" value="&lt;span style=&quot;font-size: 12px;&quot;&gt;Other&lt;/span&gt;&lt;div&gt;&lt;span style=&quot;font-size: 12px;&quot;&gt;Filters&lt;/span&gt;&lt;/div&gt;" style="text;html=1;align=center;verticalAlign=middle;whiteSpace=wrap;rounded=0;fontFamily=Times New Roman;fontSize=14;" parent="1" vertex="1">
          <mxGeometry x="269" y="499" width="40" height="30" as="geometry" />
        </mxCell>
        <mxCell id="HAwrNAH2j693whvZ-E83-4" value="" style="shape=curlyBracket;whiteSpace=wrap;html=1;rounded=1;labelPosition=left;verticalLabelPosition=middle;align=right;verticalAlign=middle;" parent="1" vertex="1">
          <mxGeometry x="248" y="459" width="20" height="60" as="geometry" />
        </mxCell>
      </root>
    </mxGraphModel>
  </diagram>
</mxfile>
